# xmcd
#
# Track frame offsets: 
#        150
#        17991
#        38063
#        64438
#        84859
#        100210
#        121213
#        141964
#        161922
#        187295
#        204859
#        224060
#        242272
#        268009
#
# Disc length: 3872 seconds
#
# Revision: 1
# Processed by: cddbd v1.5.2PL0 Copyright (c) Steve Scherf et al.
# Submitted via: ExactAudioCopy v1.0b3
#
DISCID=ce0f1e0e
DTITLE=Quintus McCormick - Put It On Me!
DYEAR=2011
DGENRE=Blues
TTITLE0=You Just Using Me
TTITLE1=Talk Baby
TTITLE2=How Quick We Forget
TTITLE3=Same Old Feeling
TTITLE4=I Got It Babe
TTITLE5=The Blues Has Been Good To Me
TTITLE6=Loveland
TTITLE7=Don't Know What To Do
TTITLE8=Change
TTITLE9=Put It On Me!
TTITLE10=Sadie
TTITLE11=Say Lover
TTITLE12=Lady Blue
TTITLE13=Hallelujah
EXTD=
EXTT0=
EXTT1=
EXTT2=
EXTT3=
EXTT4=
EXTT5=
EXTT6=
EXTT7=
EXTT8=
EXTT9=
EXTT10=
EXTT11=
EXTT12=
EXTT13=
PLAYORDER=
